<svg width="30" height="31" viewBox="0 0 30 31" fill="none" xmlns="http://www.w3.org/2000/svg">
<g clip-path="url(#clip0_223_191)">
<path d="M29.9842 15.6528C29.9842 14.4237 29.8821 13.5268 29.6613 12.5967H15.2988V18.1442H23.7292C23.5593 19.5228 22.6415 21.599 20.6018 22.9941L20.5732 23.1798L25.1144 26.6176L25.429 26.6482C28.3184 24.0405 29.9842 20.2037 29.9842 15.6528Z" fill="#4285F4"/>
<path d="M15.2989 30.2691C19.4291 30.2691 22.8964 28.9403 25.4291 26.6482L20.6019 22.9941C19.3102 23.8744 17.5764 24.4889 15.2989 24.4889C11.2536 24.4889 7.82028 21.8813 6.59638 18.2771L6.41699 18.292L1.69505 21.863L1.6333 22.0308C4.14882 26.9139 9.31591 30.2691 15.2989 30.2691Z" fill="#34A853"/>
<path d="M6.59621 18.2771C6.27328 17.347 6.08638 16.3503 6.08638 15.3206C6.08638 14.2908 6.27328 13.2942 6.57922 12.3641L6.57067 12.166L1.78956 8.53763L1.63313 8.61034C0.596364 10.6367 0.00146484 12.9122 0.00146484 15.3206C0.00146484 17.729 0.596364 20.0044 1.63313 22.0308L6.59621 18.2771Z" fill="#FBBC05"/>
<path d="M15.2989 6.15217C18.1713 6.15217 20.1089 7.36465 21.2138 8.37789L25.531 4.25873C22.8795 1.85038 19.4291 0.372131 15.2989 0.372131C9.31591 0.372131 4.14882 3.72721 1.6333 8.61034L6.57939 12.3641C7.82028 8.75988 11.2536 6.15217 15.2989 6.15217Z" fill="#EB4335"/>
</g>
<defs>
<clipPath id="clip0_223_191">
<rect width="30" height="30" fill="white" transform="translate(0 0.372131)"/>
</clipPath>
</defs>
</svg>
